<?xml version="1.0" encoding="UTF-8"?>
<svg width="124px" height="51px" viewBox="0 0 124 51" version="1.1" xmlns="http://www.w3.org/2000/svg" xmlns:xlink="http://www.w3.org/1999/xlink">
    <!-- Generator: Sketch 51.2 (57519) - http://www.bohemiancoding.com/sketch -->
    <title>Combined Shape</title>
    <desc>Created with Sketch.</desc>
    <defs></defs>
    <g id="Symbols" stroke="none" stroke-width="1" fill="none" fill-rule="evenodd">
        <g id="SwippiLogoCenter-white" transform="translate(-10.000000, -21.000000)" fill="#FFFFFF">
            <path d="M114.960673,44.6005504 C114.960673,48.4549491 113.64515,51.9972637 111.172146,54.6535975 C108.593511,57.4144955 105.067845,58.9773286 101.17328,58.9773286 C98.3850058,58.9773286 95.7535541,58.1436299 93.5438172,56.685361 L93.5438172,68.9780936 C93.5438172,70.6450888 92.123069,72 90.4390536,72 C88.7554446,72 87.3875122,70.6450888 87.3875122,68.9780936 L87.3875122,33.2971564 C87.3875122,31.6301612 88.7554446,30.2760543 90.4390536,30.2760543 C91.8598019,30.2760543 93.122915,31.265795 93.4385917,32.6199019 C95.7015507,31.1093509 98.3850058,30.2760543 101.17328,30.2760543 C105.067845,30.2760543 108.593511,31.7866054 111.172146,34.5471012 C113.64515,37.2038372 114.960673,40.7980317 114.960673,44.6005504 M108.855965,44.6005504 C108.855965,49.3928098 105.646789,52.8828423 101.17328,52.8828423 C96.7534001,52.8828423 93.5438172,49.3928098 93.5438172,44.6005504 C93.5438172,39.808291 96.7534001,36.3182585 101.17328,36.3182585 C105.646789,36.3182585 108.855965,39.808291 108.855965,44.6005504 Z M83.5360128,33.3188736 L83.5360128,55.9908132 C83.5360128,57.6586127 82.1672679,59.0139261 80.4300304,59.0139261 C78.7447962,59.0139261 77.375645,57.6586127 77.375645,55.9908132 L77.375645,33.3188736 C77.375645,31.651074 78.7447962,30.2957607 80.4300304,30.2957607 C82.1672679,30.2957607 83.5360128,31.651074 83.5360128,33.3188736 Z M83.7212748,24.2326436 C83.7212748,26.0178769 82.2598989,27.464885 80.4560321,27.464885 C78.6529778,27.464885 77.190383,26.0178769 77.190383,24.2326436 C77.190383,22.4474103 78.6529778,21 80.4560321,21 C82.2598989,21 83.7212748,22.4474103 83.7212748,24.2326436 Z M123.958881,33.2782544 L123.958881,55.950194 C123.958881,57.6179936 122.590136,58.9733069 120.852492,58.9733069 C119.167664,58.9733069 117.798513,57.6179936 117.798513,55.950194 L117.798513,33.2782544 C117.798513,31.6104548 119.167664,30.2551415 120.852492,30.2551415 C122.590136,30.2551415 123.958881,31.6104548 123.958881,33.2782544 Z M124.144143,24.2326436 C124.144143,26.0178769 122.682361,27.464885 120.8789,27.464885 C119.07544,27.464885 117.613251,26.0178769 117.613251,24.2326436 C117.613251,22.4474103 119.07544,21 120.8789,21 C122.682361,21 124.144143,22.4474103 124.144143,24.2326436 Z M133.814738,33.3188736 L133.814738,55.9908132 C133.814738,57.6586127 132.445993,59.0139261 130.708349,59.0139261 C129.023521,59.0139261 127.65437,57.6586127 127.65437,55.9908132 L127.65437,33.3188736 C127.65437,31.651074 129.023521,30.2957607 130.708349,30.2957607 C132.445993,30.2957607 133.814738,31.651074 133.814738,33.3188736 Z M134,24.2326436 C134,26.0178769 132.537812,27.464885 130.734757,27.464885 C128.931297,27.464885 127.469108,26.0178769 127.469108,24.2326436 C127.469108,22.4474103 128.931297,21 130.734757,21 C132.537812,21 134,22.4474103 134,24.2326436 Z M70.3604719,30.2760543 C72.1050224,30.2760543 73.5249581,31.6824433 73.5249581,33.4109706 L73.5249581,48.2393859 C73.5249581,51.1012286 72.3353811,53.9091805 70.2629656,55.9437593 C68.2433661,57.9256537 65.6086642,59.0139261 62.8346095,59.0139261 C62.8017011,59.0139261 62.7687927,59.013524 62.7350718,59.013524 C59.9354217,58.9873829 57.3047826,57.8987083 55.3164663,55.9465745 C53.32815,57.8987083 50.6971046,58.9873829 47.8970483,59.013524 C45.0896789,59.034839 42.4135369,57.9497839 40.3703733,55.9441614 C38.2971453,53.9095827 37.1075682,51.1012286 37.1075682,48.2393859 L37.1075682,33.4109706 C37.1075682,31.6824433 38.5270976,30.2760543 40.2720544,30.2760543 C42.0166049,30.2760543 43.4365406,31.6824433 43.4365406,33.4109706 L43.4365406,48.3214286 C43.4365406,50.6729174 45.3163811,52.655214 47.6276871,52.7404741 C48.8249834,52.785115 49.9495562,52.3600211 50.8080181,51.5448223 C51.668105,50.7284169 52.1450734,49.6288837 52.1515738,48.4497208 L52.2397358,48.426395 L52.1507613,48.426395 L52.1507613,33.4117749 C52.1507613,31.6828455 53.570697,30.2760543 55.3164663,30.2760543 C57.0618294,30.2760543 58.4817651,31.6828455 58.4817651,33.4117749 L58.4817651,48.426395 L58.391978,48.450123 L58.4813588,48.4497208 C58.4870467,49.6288837 58.9644213,50.7280147 59.824102,51.5444201 C60.6833764,52.359619 61.812012,52.7847128 63.004433,52.7404741 C65.3157389,52.6556162 67.1955795,50.6729174 67.1955795,48.3214286 L67.1955795,33.4109706 C67.1955795,31.6824433 68.6159214,30.2760543 70.3604719,30.2760543 Z M30.2085901,39.7628458 C32.9680188,41.6534476 34.3688596,44.3886068 34.3688596,47.8911065 C34.3688596,50.6676892 33.2430679,53.4346198 31.280347,55.4820679 C29.7068389,57.0935637 26.8527478,59.0139261 22.1846329,59.0139261 C18.5155515,59.0139261 15.4562909,57.8263177 13.0913565,55.484481 C11.1257917,53.4346198 10,50.667287 10,47.8911065 C10,46.154938 11.4272487,44.7421143 13.1811435,44.7421143 C14.8111241,44.7421143 16.0892694,46.0001025 16.3602557,47.873411 C16.8197542,51.0417074 18.8332596,52.716746 22.1846329,52.716746 C26.7812431,52.716746 28.0077913,49.6835788 28.0077913,47.8911065 C28.0077913,45.2239141 26.5220389,44.401074 21.4127079,42.9560767 L21.2847309,42.9186749 C19.0164902,42.2554963 16.6706508,41.5701984 14.7408383,40.2273523 C12.0854163,38.4405104 10.7377978,35.8802952 10.7377978,32.6194997 C10.7377978,30.010622 11.7868032,27.4146138 13.6154529,25.4974687 C15.0942987,23.9812873 17.7801914,22.174739 22.1846329,22.174739 C26.5890744,22.174739 29.2745609,23.9812873 30.7525941,25.4966644 C32.615371,27.3928966 33.684284,29.989307 33.684284,32.6194997 C33.684284,34.3556682 32.2334713,35.7684919 30.4511371,35.7684919 C28.8044992,35.7684919 27.5271665,34.5096994 27.2716187,32.6363909 C27.0124144,30.736137 25.9187185,28.4715169 22.1846329,28.4715169 C18.1702167,28.4715169 17.098866,31.0787859 17.098866,32.6194997 C17.098866,34.579677 17.85454,35.3301265 23.1678216,36.877275 C25.471002,37.5211494 28.0829524,38.2518926 30.2085901,39.7628458 Z" id="Combined-Shape"></path>
        </g>
    </g>
</svg>